<?xml version="1.0" encoding="UTF-8"?>
<svg id="Layer_1" data-name="Layer 1" xmlns="http://www.w3.org/2000/svg" viewBox="0 0 1666.67 2500">
  <defs>
    <style>
      .cls-1 {
        fill: #f24e1e;
      }

      .cls-2 {
        fill: #a259ff;
      }

      .cls-3 {
        fill: #ff7262;
      }

      .cls-4 {
        fill: #1abcfe;
      }

      .cls-5 {
        fill: none;
      }

      .cls-6 {
        fill: #0acf83;
      }
    </style>
  </defs>
  <path class="cls-5" d="m0,0h1666.67v2499.99H0V0Z"/>
  <path class="cls-4" d="m833.33,1250c0-230.11,186.55-416.67,416.67-416.67s416.67,186.55,416.67,416.67-186.55,416.67-416.67,416.67-416.67-186.55-416.67-416.67Z"/>
  <path class="cls-6" d="m0,2083.33c0-230.11,186.55-416.67,416.67-416.67h416.67v416.67c0,230.12-186.55,416.67-416.67,416.67S0,2313.45,0,2083.33Z"/>
  <path class="cls-3" d="m833.33,0v833.33h416.67c230.12,0,416.67-186.55,416.67-416.67S1480.12,0,1250,0h-416.67Z"/>
  <path class="cls-1" d="m0,416.67c0,230.12,186.55,416.67,416.67,416.67h416.67V0h-416.67C186.55,0,0,186.55,0,416.67h0Z"/>
  <path class="cls-2" d="m0,1250c0,230.12,186.55,416.67,416.67,416.67h416.67v-833.33h-416.67C186.55,833.33,0,1019.89,0,1250h0Z"/>
</svg>