<?xml version="1.0" encoding="UTF-8"?><svg id="Layer_1" xmlns="http://www.w3.org/2000/svg" xmlns:xlink="http://www.w3.org/1999/xlink" viewBox="0 0 2291.67 2229.17"><defs><style>.cls-1{fill:url(#radial-gradient);}</style><radialGradient id="radial-gradient" cx="754.77" cy="1729.68" fx="754.77" fy="1729.68" r="1736.14" gradientUnits="userSpaceOnUse"><stop offset="0" stop-color="#39464d" stop-opacity=".98"/><stop offset="1" stop-color="#05151f"/></radialGradient></defs><path class="cls-1" d="m0,2229.17h2291.67V0H0v2229.17ZM1362.5,807.29c63.54-26.04,214.58-71.87,383.33-71.87,8.33,0,12.5,2.08,12.5,10.42v150c0,8.33-3.12,10.42-12.5,10.42-65.62-3.12-162.5,5.21-198.96,20.83v657.3c0,8.33-3.12,12.5-12.5,12.5h-163.54c-8.33,0-12.5-3.12-12.5-12.5v-662.5h1.05c0-12.51,0-42.71-5.21-101.04,0-8.33,2.08-10.42,8.33-13.54Zm-789.58-345.83c0-8.33,3.12-13.54,12.5-13.54h164.58c8.33,0,10.42,3.12,10.42,12.5v964.59h429.16c8.33,0,11.46,3.12,9.37,12.5l-26.04,147.92c-2.08,8.33-7.29,12.5-15.63,12.5h-568.74v-1.05c-12.5,0-15.63-5.2-15.63-15.62V461.46Z"/></svg>