<?xml version="1.0" encoding="UTF-8"?>
<svg id="Layer_2" data-name="Layer 2" xmlns="http://www.w3.org/2000/svg" xmlns:xlink="http://www.w3.org/1999/xlink" viewBox="0 0 79.65 79.65">
  <defs>
    <style>
      .cls-1 {
        fill: #fff;
      }

      .cls-2 {
        fill: #eb2625;
      }

      .cls-3 {
        clip-path: url(#clippath);
      }

      .cls-4 {
        fill: none;
      }

      .cls-5 {
        fill: #231f20;
      }
    </style>
    <clipPath id="clippath">
      <circle class="cls-4" cx="39.83" cy="39.83" r="39.83"/>
    </clipPath>
  </defs>
  <g id="Layer_7" data-name="Layer 7">
    <g>
      <circle class="cls-2" cx="39.83" cy="39.83" r="39.83"/>
      <g class="cls-3">
        <g>
          <g>
            <path class="cls-5" d="m50.15,18.99c1.55-.94,3.09-1.88,4.64-2.83-2.25-.21-4.5-.43-6.75-.64-.56-.37-4.66-2.95-8.96-1.41-4.54,1.63-7.5,7.21-6.25,13.25-8.86,9.24-17.71,18.48-26.57,27.72,3.98-.9,7.96-1.8,11.94-2.69-3.37,10.27-6.74,20.53-10.11,30.8,3.65-5.4,7.29-10.81,10.94-16.21,2.62-3.88,5.23-7.76,7.85-11.64,0,2.5,0,5,0,7.49.85-.37,1.7-.74,2.54-1.11.06-2.77.11-5.54.17-8.31.17,0,.36-.01.56-.03.2-.02.38-.05.55-.08,1.23,1.88,2.45,3.76,3.68,5.64h3.07c-1.4-2.08-2.81-4.16-4.21-6.24,2.87-.9,6.88-2.72,10.04-6.52.63-.76,6.22-7.66,5.06-15.42-.31-2.08-1.12-4.36-.29-7.49.5-1.9,1.41-3.34,2.12-4.28Z"/>
            <path class="cls-1" d="m50.15,18.99c-.71.05-9.21.72-11.26,6.06-.23.59-.4,1.29-.43,2.12.71.11,1.72.34,2.84.89,2.51,1.24,3.76,3.22,4.21,3.97,2.09,3.42,1.61,6.98,1.42,8.03,1.11-2.63,1.91-5.88,1.4-9.3-.31-2.08-1.12-4.36-.29-7.49.5-1.9,1.41-3.34,2.12-4.28Z"/>
            <circle class="cls-1" cx="41.87" cy="17.78" r="1.14"/>
          </g>
          <path class="cls-5" d="m69.77,56.09h0c-1.11-2.13-3.74-2.96-5.87-1.85-1.03.54-1.79,1.44-2.14,2.55-.22.68-.24,1.39-.11,2.08-2.58,1.13-4.03-.42-6.28-3.18-.93-1.14-2.02-2.47-3.35-3.35l8.84-4.59c.45.41.98.72,1.58.91.43.14.87.2,1.32.2.69,0,1.37-.16,2-.49,2.13-1.11,2.96-3.74,1.85-5.87-1.11-2.13-3.74-2.96-5.87-1.85-1.03.54-1.79,1.44-2.14,2.55-.22.69-.24,1.41-.11,2.1L-1.01,76.71l-.37.19.29.3c.53.55,1.08,1.1,1.63,1.62l.16.15,46.93-24.36s.03,0,.05-.01c2.05-1.07,3.2,0,5.53,2.86,1.67,2.05,3.75,4.6,6.83,4.6.95,0,1.95-.26,2.98-.75.46.41.99.73,1.59.92.43.14.87.2,1.32.2.69,0,1.37-.16,2-.49,2.13-1.11,2.96-3.74,1.85-5.87Zm-8.1-12.22c.18-.55.55-1.01,1.07-1.27.32-.17.66-.25,1-.25.79,0,1.55.43,1.93,1.17h0c.55,1.06.14,2.38-.93,2.93-.52.27-1.1.32-1.66.14-.55-.18-1-.55-1.27-1.07-.27-.51-.32-1.1-.15-1.65Zm5.24,16.16c-.52.27-1.1.32-1.66.14-.55-.18-1-.55-1.27-1.07-.27-.51-.32-1.1-.15-1.65.18-.55.55-1.01,1.07-1.27.32-.17.66-.25,1-.25.79,0,1.55.43,1.93,1.17.55,1.06.14,2.38-.93,2.93Z"/>
        </g>
      </g>
    </g>
  </g>
</svg>