<?xml version="1.0" encoding="UTF-8"?>
<svg id="Layer_2" data-name="Layer 2" xmlns="http://www.w3.org/2000/svg" viewBox="0 0 24.85 28.99">
  <defs>
    <style>
      .cls-1 {
        fill: #010101;
      }
    </style>
  </defs>
  <g id="Layer_2-2" data-name="Layer 2">
    <g>
      <path class="cls-1" d="m22.77,28.99h-2.07v-3.11c0-2.86-2.32-5.17-5.18-5.18h-6.21c-2.86,0-5.17,2.32-5.18,5.18v3.11h-2.07v-3.11c0-4,3.25-7.24,7.25-7.25h6.21c4,0,7.24,3.25,7.25,7.25v3.11ZM1.04,4.14c-.57,0-1.04.46-1.04,1.04v9.32h2.07V5.18c0-.57-.46-1.04-1.04-1.04"/>
      <path class="cls-1" d="m0,0v2.07h5.18v7.25c0,4,3.24,7.25,7.25,7.25s7.25-3.24,7.25-7.25V2.07h5.18V0H0Zm7.25,2.07h10.35v3.11H7.25v-3.11Zm5.18,12.42c-2.86,0-5.18-2.32-5.18-5.18v-2.07h10.35v2.07c0,2.86-2.32,5.18-5.18,5.18"/>
    </g>
  </g>
</svg>