<?xml version="1.0" encoding="UTF-8"?><svg id="Layer_1" xmlns="http://www.w3.org/2000/svg" viewBox="0 0 9 10.5"><path d="m3,0C2.17,0,1.5.67,1.5,1.5v1.8c.23-.13.49-.23.75-.27v-1.53c0-.41.34-.75.75-.75h2.25v1.88c0,.62.5,1.12,1.12,1.12h1.88v5.25c0,.41-.34.75-.75.75h-1.78c-.15.28-.36.53-.6.74h-.01s2.39.01,2.39.01c.83,0,1.5-.67,1.5-1.5V3.31c0-.3-.12-.58-.33-.79L6.49.33C6.27.12,5.99,0,5.69,0h-2.69Zm5.09,3h-1.72c-.21,0-.38-.17-.38-.38V.91l2.09,2.09Zm-3.97,2.25c0,.83-.67,1.5-1.5,1.5s-1.5-.67-1.5-1.5.67-1.5,1.5-1.5,1.5.67,1.5,1.5m1.12,3.38c0,.93-.75,1.88-2.62,1.88s-2.62-.94-2.62-1.88c0-.62.5-1.12,1.12-1.12h3c.62,0,1.12.5,1.12,1.12"/></svg>