<?xml version="1.0" encoding="UTF-8"?>
<svg id="Layer_2" data-name="Layer 2" xmlns="http://www.w3.org/2000/svg" viewBox="0 0 70.17 20.44">
  <defs>
    <style>
      .cls-1 {
        fill: #010101;
      }
    </style>
  </defs>
  <g id="Layer_2-2" data-name="Layer 2">
    <g>
      <path class="cls-1" d="m4.93,0C2.76.17.94,1.57.26,3.6,0,4.4,0,4.22,0,10.2,0,13.84.02,15.76.05,15.99c.27,1.93,1.7,3.63,3.55,4.22.75.24.39.23,6.66.23h5.83l.43-.12c1.73-.48,3.1-1.74,3.65-3.37.3-.9.28-.49.28-6.71,0-5.27,0-5.63-.08-5.97-.25-1.15-.75-2.04-1.55-2.81-.73-.7-1.52-1.11-2.58-1.35l-.42-.1h-5.35C7.54,0,5.04,0,4.93,0Zm11.22,1.56c.44.12,1.13.47,1.45.74.59.49,1.06,1.2,1.27,1.93l.1.34v11.31l-.1.34c-.37,1.26-1.32,2.23-2.61,2.63l-.39.12h-5.59c-6.28,0-5.89.02-6.61-.33-.49-.24-.81-.46-1.14-.81-.49-.52-.79-1.04-.96-1.72l-.1-.37V4.72l.1-.37c.39-1.48,1.58-2.58,3.06-2.84.11-.02,2.69-.03,5.73-.03,5.2,0,5.54,0,5.81.09Z"/>
      <path class="cls-1" d="m25.54.74c-.71.15-1.22.41-1.64.83-.48.48-.67.95-.67,1.66s.18,1.16.63,1.62c.43.43,1.06.71,1.85.83,1.49.23,2.9-.19,3.55-1.06.31-.41.39-.68.42-1.29l.02-.51h-3.33v.47s.03.47.03.47h.95s.95.02.95.02l-.08.17c-.24.47-.82.71-1.72.71-.74,0-1.21-.14-1.54-.46-.28-.28-.35-.46-.35-.93,0-.37.01-.44.12-.63.14-.28.34-.46.63-.61.82-.41,2.36-.27,2.72.25l.09.12h1.4l-.03-.1c-.21-.72-.83-1.23-1.81-1.48-.48-.12-1.74-.16-2.18-.06Z"/>
      <path class="cls-1" d="m53.09.72c-.78.14-1.3.43-1.55.86-.09.15-.12.27-.14.53-.03.42.03.61.27.86.4.42,1.08.62,2.61.76.86.07,1.14.16,1.23.38.07.17-.02.31-.26.41-.17.08-.31.1-.86.11-.39.01-.77,0-.94-.03-.37-.07-.69-.25-.8-.46l-.09-.16h-1.37l.04.18c.21.93,1.14,1.48,2.64,1.55.9.04,1.82-.1,2.3-.34.47-.24.74-.65.74-1.14,0-.54-.22-.92-.69-1.16-.5-.27-.96-.36-2.43-.49-.28-.03-.6-.08-.72-.12-.41-.15-.41-.45-.02-.63.17-.07.31-.1.77-.11.93-.03,1.47.13,1.66.48l.09.16h1.34l-.03-.16c-.05-.28-.28-.69-.5-.89-.25-.22-.64-.41-1.08-.53-.29-.08-.49-.1-1.18-.11-.45,0-.92,0-1.03.03Z"/>
      <path class="cls-1" d="m59.72.72c-1.55.28-2.48,1.33-2.38,2.68.12,1.53,1.45,2.43,3.45,2.33,1.28-.07,2.22-.53,2.55-1.27.07-.15.14-.32.15-.39l.03-.12h-1.38s-.12.18-.12.18c-.36.52-1.69.68-2.5.31-.67-.31-.96-.98-.74-1.71.1-.32.46-.69.82-.83.93-.34,2.15-.11,2.45.48l.07.13h1.39l-.03-.12c-.19-.77-.73-1.27-1.7-1.56-.35-.1-.48-.12-1.14-.13-.41,0-.83,0-.95.03Z"/>
      <path class="cls-1" d="m30.39,3.19v2.47h1.27v-1.7h1.17c1.56,0,1.48-.05,1.51.9.01.29.05.59.08.66l.06.14h.69c.38,0,.69-.02.69-.04s-.03-.12-.07-.22c-.04-.13-.07-.35-.07-.71,0-.84-.12-1.1-.56-1.26l-.24-.08.21-.09c.43-.19.63-.49.66-.99.05-.79-.38-1.3-1.24-1.48-.24-.05-.7-.07-2.24-.07h-1.93v2.47Zm3.75-1.33c.31.14.41.51.21.79-.16.23-.27.25-1.55.25h-1.15s0-.56,0-.56v-.57h1.15c1.04,0,1.16,0,1.33.09Z"/>
      <path class="cls-1" d="m38.32,1.6c-.85,1.64-2.04,4-2.04,4.03,0,.01.31.03.7.03h.7l.25-.5.25-.5h2.79l.25.5.25.5h.7c.38,0,.7,0,.7-.02,0,0-.56-1.12-1.25-2.47l-1.25-2.45h-1.59l-.46.88Zm1.71,2.03c-.24,0-.63,0-.88,0h-.45s.43-.91.43-.91l.44-.9.45.9.45.9h-.43Z"/>
      <path class="cls-1" d="m43.39.75s-.03,1.13-.03,2.47v2.44h1.35v-1.75h3.27v-1.05h-3.27v-1.05h1.85s1.84-.02,1.84-.02V.74h-2.49c-1.37-.02-2.51,0-2.52,0Z"/>
      <path class="cls-1" d="m49.12,3.19v2.47h1.35V.72h-1.35v2.47Z"/>
      <path class="cls-1" d="m64.26.75s-.03,1.13-.03,2.47v2.44h1.35v-1.96h3.23v1.96h1.35V.72h-.66s-.67.03-.67.03v.93s-.02.93-.02.93h-3.23V.72h-.65c-.36,0-.66.01-.68.03Z"/>
      <path class="cls-1" d="m35.72,7.79c-.72.16-1.19.41-1.6.85-.53.57-.73,1.33-.56,2.14.28,1.31,1.53,2.05,3.34,1.97,1.33-.06,2.25-.5,2.61-1.26.07-.15.14-.33.16-.4l.03-.12h-1.38l-.1.16c-.22.35-.95.57-1.68.52-.7-.05-1.23-.32-1.48-.77-.17-.31-.21-.79-.1-1.14.11-.33.48-.69.83-.82.92-.34,2.15-.1,2.45.48l.07.13h1.39l-.03-.12c-.01-.07-.09-.26-.17-.43-.26-.54-.82-.94-1.61-1.15-.51-.14-1.64-.16-2.16-.04Z"/>
      <path class="cls-1" d="m23.4,10.22v2.47h5.07v-1.09h-3.71v-3.84h-1.35v2.47Z"/>
      <path class="cls-1" d="m27.47,7.82s.59.66,1.25,1.38l1.19,1.32v2.16h1.35v-2.14l1.24-1.37c.69-.76,1.24-1.38,1.24-1.39,0-.02-.37-.03-.82-.03h-.82l-.74.84c-.41.46-.75.84-.77.85-.02,0-.37-.37-.78-.84l-.75-.86h-.83c-.76,0-.83,0-.77.07Z"/>
      <path class="cls-1" d="m40.48,10.22v2.47h4.89v-1.05h-3.62v-.92h3.24v-.52s-.03-.51-.03-.51h-1.6s-1.61-.02-1.61-.02v-.87h3.62v-1.05h-4.89v2.47Z"/>
      <path class="cls-1" d="m46.11,9.17c0,1.58.03,1.91.27,2.38.18.38.52.71.92.9.54.26.83.31,1.67.31s1.13-.05,1.67-.31c.39-.18.77-.55.94-.89.25-.51.27-.67.27-2.29v-1.48h-.66s-.66-.03-.66-.03l-.02,1.43c-.02,1.36-.03,1.45-.12,1.69-.12.3-.36.56-.65.69-.17.08-.29.09-.77.1-.55,0-.58,0-.83-.13-.18-.09-.31-.19-.41-.33-.25-.35-.28-.55-.28-2.08v-1.37h-1.35v1.41Z"/>
      <path class="cls-1" d="m52.79,10.22v2.47h1.22v-1.65c0-1.24.02-1.63.05-1.57.03.04.38.77.78,1.64l.73,1.56h.74s.74.02.74.02l.76-1.64.76-1.64v1.64s.02,1.64.02,1.64h1.27v-4.93h-.88s-.88.02-.88.02l-.87,1.86c-.48,1.02-.89,1.87-.9,1.89-.02.02-.43-.82-.92-1.86l-.89-1.9h-1.73v2.47Z"/>
      <path class="cls-1" d="m49.89,14.8c-1.21.25-1.98.89-2.23,1.83-.14.54-.07,1.25.18,1.77.14.29.6.76.91.93.6.33,1.39.49,2.27.45.97-.04,1.69-.29,2.18-.73.24-.22.48-.62.53-.9l.03-.14h-1.35l-.1.15c-.22.32-.64.5-1.29.54-1.21.08-2.03-.47-2.04-1.38-.01-.86.51-1.37,1.52-1.48.79-.09,1.58.17,1.8.59l.08.15h1.39l-.03-.14c-.06-.31-.26-.65-.52-.9-.31-.3-.65-.48-1.19-.65-.33-.1-.48-.12-1.1-.13-.51,0-.81,0-1.02.05Z"/>
      <path class="cls-1" d="m23.4,16.25c0,1.1.02,1.55.06,1.77.18.85.74,1.4,1.68,1.66.45.13,1.72.14,2.12.03.95-.26,1.42-.65,1.72-1.41l.12-.3v-1.61s.03-1.6.03-1.6h-1.35v1.49s-.03,1.5-.03,1.5l-.11.22c-.15.28-.31.44-.59.58-.21.11-.26.12-.79.12s-.59-.01-.79-.1c-.28-.13-.47-.32-.6-.59-.1-.22-.1-.26-.11-1.72v-1.49h-1.36v1.47Z"/>
      <path class="cls-1" d="m29.69,15.33v.55h2.18v3.84h1.35v-3.84h2.19v-.54s-.03-.53-.03-.53h-2.85s-2.85-.02-2.85-.02v.55Z"/>
      <path class="cls-1" d="m35.94,17.25v2.47h1.31v-1.7h1.15c1.53,0,1.45-.04,1.48.87.01.32.04.56.09.66l.07.17h.68c.75,0,.72.01.62-.28-.04-.11-.06-.36-.07-.72,0-.3-.02-.62-.05-.71-.07-.24-.24-.42-.51-.51l-.23-.08.19-.07c.43-.17.69-.57.69-1.09,0-.79-.47-1.27-1.37-1.42-.16-.02-1.09-.04-2.16-.04h-1.89v2.47Zm3.79-1.32c.28.15.37.56.18.79-.17.22-.28.24-1.52.24h-1.14v-1.14h1.17c1.02.03,1.18.03,1.31.1Z"/>
      <path class="cls-1" d="m42.22,17.25v2.47h4.89v-.52s-.03-.51-.03-.51h-1.8s-1.8-.02-1.8-.02v-.92h3.24v-.52s-.03-.51-.03-.51h-1.6s-1.61-.02-1.61-.02v-.87h3.62v-1.05h-4.89v2.47Z"/>
      <path class="cls-1" d="m54.49,17.25v2.47h1.35v-1.96h3.23v1.96h1.31v-4.93h-1.31v1.88h-3.23v-.93s-.02-.93-.02-.93h-.66s-.67-.03-.67-.03v2.47Z"/>
      <path class="cls-1" d="m60.95,15.33v.55h2.18v3.84h1.35v-3.84h2.19v-.54s-.03-.53-.03-.53h-2.85s-2.85-.02-2.85-.02v.55Z"/>
    </g>
  </g>
</svg>