<?xml version="1.0" encoding="UTF-8"?>
<svg id="Layer_2" data-name="Layer 2" xmlns="http://www.w3.org/2000/svg" xmlns:xlink="http://www.w3.org/1999/xlink" viewBox="0 0 79.65 79.65">
  <defs>
    <style>
      .cls-1 {
        fill: #fff;
      }

      .cls-2 {
        fill: #eb2625;
      }

      .cls-3 {
        clip-path: url(#clippath);
      }

      .cls-4 {
        fill: none;
      }
    </style>
    <clipPath id="clippath">
      <circle class="cls-4" cx="39.83" cy="39.83" r="39.83"/>
    </clipPath>
  </defs>
  <g id="Layer_7" data-name="Layer 7">
    <g>
      <circle class="cls-2" cx="39.83" cy="39.83" r="39.83"/>
      <g class="cls-3">
        <g>
          <path d="m58.33,27.67c3.63-2.21,7.25-4.42,10.88-6.63-5.28-.5-10.56-1-15.84-1.5-1.32-.86-10.94-6.93-21.02-3.3-10.64,3.82-17.6,16.92-14.65,31.07C-3.08,68.98-23.85,90.66-44.62,112.33c9.33-2.11,18.66-4.21,27.99-6.32-7.9,24.08-15.8,48.16-23.71,72.25,8.55-12.68,17.1-25.35,25.65-38.03,6.14-9.1,12.28-18.2,18.42-27.3,0,5.74,0,11.48,0,17.21,2.15-1.47,4.3-2.94,6.45-4.41v-17.28c.4-.03.81-.08,1.23-.13.44-.05.87-.11,1.28-.18,2.88,4.41,5.75,8.82,8.63,13.24h7.2c-3.29-4.88-6.59-9.76-9.88-14.65,6.73-2.1,16.13-6.39,23.55-15.29,1.48-1.78,14.58-17.97,11.86-36.16-.73-4.87-2.64-10.22-.69-17.57,1.18-4.46,3.3-7.84,4.97-10.05Z"/>
          <path class="cls-1" d="m58.33,27.67c-1.66.11-21.6,1.69-26.41,14.22-.53,1.38-.93,3.02-1.02,4.97,1.65.25,4.05.8,6.66,2.09,5.88,2.9,8.81,7.56,9.88,9.31,4.9,8.03,3.77,16.37,3.34,18.84,2.6-6.18,4.47-13.8,3.27-21.81-.73-4.87-2.64-10.22-.69-17.57,1.18-4.46,3.3-7.84,4.97-10.05Z"/>
          <circle class="cls-1" cx="38.9" cy="24.81" r="2.68"/>
        </g>
      </g>
    </g>
  </g>
</svg>