<?xml version="1.0" encoding="UTF-8"?>
<svg id="Layer_1" data-name="Layer 1" xmlns="http://www.w3.org/2000/svg" viewBox="0 0 605.73 667">
  <defs>
    <style>
      .cls-1 {
        fill: #fff;
      }
    </style>
  </defs>
  <path class="cls-1" d="m298.22,0c3.11,0,6.23,0,9.34,0,1.06.29,2.1.75,3.17.83,13.51,1.06,26.14,5,37.87,11.71,69.74,39.93,139.5,79.82,209.16,119.91,31.76,18.28,47.98,45.82,47.96,82.68-.02,79.09,0,158.17-.03,237.26,0,4.32-.22,8.66-.66,12.96-1.74,17.03-8.3,32.11-18.74,45.6-9.4,12.15-21.89,20.26-35.02,27.76-66.51,37.97-132.96,76.04-199.32,114.27-15.07,8.68-31.07,13.91-48.39,14.02-17.07.11-33.04-4.51-47.95-13.08-69.67-40.05-139.53-79.77-209.09-120.02C16.22,516.37.27,489.58.15,454.4c-.28-80.42-.1-160.84-.05-241.26,0-4.65.13-9.37.88-13.94,4.69-28.45,19.41-50.24,44.18-65.02,13.65-8.14,27.54-15.87,41.33-23.78,54.19-31.07,108.43-62.06,162.54-93.27,13.21-7.62,26.68-14.14,42.04-15.91,2.4-.28,4.76-.81,7.14-1.22Zm-63.99,377.55c-.66.73-1.45,1.49-2.12,2.35-10.38,13.34-20.67,26.75-31.17,40-1.98,2.5-1.81,3.88.5,5.96,11.45,10.28,24.62,17.52,39.22,22.08,24.62,7.69,49.76,10.98,75.59,8.93,18.59-1.48,36.43-5.44,52.97-14.28,15.92-8.51,28.25-20.41,34.43-37.78,3.49-9.8,4.02-19.91,3-30.23-1.64-16.59-7.71-30.91-20.53-42-8.87-7.67-19-13.31-30.02-16.96-15.37-5.09-31.04-9.29-46.49-14.16-6.75-2.13-13.43-4.63-19.83-7.61-3.98-1.86-6.75-5.39-7.38-10.1-1.11-8.27,3.22-14.55,12.45-17.02,13.16-3.53,26.41-2.8,39.56.23,12.48,2.88,23.76,8.64,34.66,15.17,1.73,1.04,2.96,1.66,4.36-.53,9.24-14.41,18.56-28.78,27.9-43.13,1.14-1.75.73-2.75-.97-3.73-3.18-1.83-6.23-3.88-9.43-5.66-19.84-11.03-41.17-16.85-63.76-18.49-15.91-1.16-31.73-1.1-47.44,2.07-20.06,4.05-38.03,12.11-52.45,27.09-19.4,20.15-22.83,51.66-8.07,75.12,8.95,14.21,21.99,23.71,37.32,29.5,15.75,5.95,32.11,10.25,48.1,15.58,7.88,2.62,15.71,5.53,23.22,9.06,6.06,2.85,9.31,8.2,8.75,15.2-.59,7.28-4.67,11.76-11.61,13.77-9.8,2.84-19.71,3.82-29.95,3.08-16.02-1.16-30.99-5.57-45-13.22-5.42-2.96-10.41-6.73-15.81-10.27Z"/>
</svg>