<?xml version="1.0" encoding="UTF-8"?>
<svg id="Layer_2" data-name="Layer 2" xmlns="http://www.w3.org/2000/svg" viewBox="0 0 64.72 64.72">
  <defs>
    <style>
      .cls-1 {
        fill: #fff;
      }

      .cls-2 {
        fill: #eb2625;
      }

      .cls-3 {
        fill: #231f20;
      }

      .cls-4 {
        fill: #010101;
      }
    </style>
  </defs>
  <g id="Layer_4" data-name="Layer 4">
    <circle class="cls-2" cx="32.36" cy="32.36" r="32.36"/>
    <g>
      <path class="cls-3" d="m43.03,18.62c.95-.58,1.9-1.16,2.85-1.74-1.38-.13-2.76-.26-4.15-.39-.35-.23-2.86-1.81-5.5-.87-2.79,1-4.61,4.43-3.84,8.13-5.44,5.67-10.87,11.35-16.31,17.02,2.44-.55,4.89-1.1,7.33-1.65-2.07,6.3-4.14,12.61-6.21,18.91,2.24-3.32,4.48-6.64,6.72-9.95,1.61-2.38,3.21-4.76,4.82-7.15,0,1.53,0,3.07,0,4.6.52-.23,1.04-.45,1.56-.68v-5.59c.14,0,.29,0,.43,0,.87,1.29,1.74,2.58,2.61,3.87h1.88c-.86-1.28-1.72-2.56-2.59-3.83,1.76-.55,4.22-1.67,6.16-4,.39-.47,3.82-4.7,3.11-9.47-.19-1.28-.69-2.67-.18-4.6.31-1.17.86-2.05,1.3-2.63Z"/>
      <path class="cls-1" d="m43.03,18.62c-.44.03-5.65.44-6.91,3.72-.14.36-.24.79-.27,1.3.43.07,1.06.21,1.74.55,1.54.76,2.31,1.98,2.59,2.44,1.28,2.1.99,4.29.87,4.93.68-1.62,1.17-3.61.86-5.71-.19-1.28-.69-2.67-.18-4.6.31-1.17.86-2.05,1.3-2.63Z"/>
      <circle class="cls-1" cx="37.94" cy="17.87" r=".7"/>
    </g>
    <path class="cls-4" d="m53.44,35.82c-.27,0-.54-.04-.81-.13-.68-.21-1.24-.68-1.56-1.31-.33-.63-.39-1.35-.18-2.03.21-.68.68-1.24,1.31-1.57,1.31-.68,2.92-.17,3.6,1.14h0c.68,1.31.17,2.92-1.14,3.6-.39.2-.8.3-1.23.3Zm0-4c-.21,0-.42.05-.61.15-.32.16-.55.44-.66.78-.11.34-.07.7.09,1.02.16.32.44.55.78.66.34.11.7.08,1.02-.09.65-.34.91-1.15.57-1.8h0c-.24-.46-.7-.72-1.19-.72Z"/>
    <path class="cls-4" d="m7.96,57.43c-.24,0-.47-.13-.59-.36-.17-.33-.04-.73.29-.9l43.71-22.69c.32-.17.73-.05.9.29.17.33.04.73-.29.9L8.27,57.35c-.1.05-.2.07-.31.07Z"/>
    <path class="cls-4" d="m54.77,44.16c-.27,0-.54-.04-.81-.13-.68-.21-1.24-.68-1.56-1.31-.33-.63-.39-1.35-.18-2.03.21-.68.68-1.24,1.31-1.57,1.31-.68,2.92-.17,3.6,1.14h0c.68,1.31.17,2.92-1.14,3.6-.39.2-.8.3-1.23.3Zm0-4c-.21,0-.42.05-.61.15-.32.16-.55.44-.66.78-.11.34-.07.7.09,1.02.16.32.44.55.78.66.34.11.7.08,1.02-.09.65-.34.91-1.15.57-1.8-.24-.46-.7-.72-1.19-.72Z"/>
    <path class="cls-4" d="m51.36,43.53c-1.8,0-3.02-1.49-4.04-2.76-1.35-1.65-2.18-2.55-3.63-1.8-.32.17-.73.05-.9-.29-.17-.33-.04-.73.29-.9,2.48-1.28,4.04.61,5.28,2.14,1.47,1.8,2.47,2.86,4.33,1.89.32-.17.73-.04.9.29.17.33.04.73-.29.9-.72.37-1.36.53-1.94.53Z"/>
  </g>
</svg>