<?xml version="1.0" encoding="UTF-8"?>
<svg id="Layer_1" data-name="Layer 1" xmlns="http://www.w3.org/2000/svg" viewBox="0 0 209.25 202.66">
  <defs>
    <style>
      .cls-1 {
        fill: #fff;
      }
    </style>
  </defs>
  <path class="cls-1" d="m8.31,30.62c-.75,0-1.51-.1-2.27-.3-.76-.2-1.4-.45-1.91-.75-.51-.3-.77-.6-.77-.89,0-.33.22-.8.67-1.39.45-.59.99-1.2,1.64-1.83.65-.62,1.29-1.15,1.92-1.58.64-.43,1.13-.64,1.48-.64.52,0,1.07.32,1.64.95.57.64,1.06,1.41,1.45,2.33.4.92.59,1.79.59,2.62,0,.42-.43.77-1.28,1.05-.85.28-1.92.42-3.19.42Zm23.16,26.78c-4.62,0-8.58-.93-11.86-2.78-3.28-1.85-5.71-4.52-7.3-8-.79-1.77-1.27-3.6-1.44-5.48-.17-1.89-.46-3.65-.88-5.3l-2.06-8.44c-.23-.98-.4-1.82-.5-2.52-.1-.7-.16-1.37-.16-2.02,0-2.83.65-5.38,1.95-7.62,1.3-2.25,3.07-4.03,5.31-5.34,2.24-1.31,4.77-1.97,7.58-1.97,2.12,0,4.15.46,6.08,1.38,1.93.92,3.69,2.22,5.3,3.92,1.6,1.7,2.96,3.75,4.06,6.14l1.31,2.84c1.02,2.19,2.06,3.78,3.11,4.77,1.05.99,2.21,1.48,3.48,1.48,1.33,0,2.67-.73,4-2.19,1.33-1.46,2.94-3.98,4.81-7.56,5.62,0,10.48.82,14.56,2.47,4.08,1.65,7.09,4.01,9.03,7.09l-20.41,13.62c1.04.52,1.84,1.1,2.41,1.73.56.64.84,1.27.84,1.89,0,.73-.24,1.37-.73,1.92-.49.55-1.2.97-2.14,1.27-.52,1.02-1.13,1.78-1.84,2.27-.71.49-1.65.79-2.81.89l-1.62,1.81c-.9,1-1.85,1.71-2.86,2.12-1.01.42-2.26.62-3.73.62-1.62,0-3.11-.24-4.47-.72-1.4.52-2.89.93-4.47,1.23-1.58.3-3.1.45-4.56.45Zm0-1.25c1.23,0,2.49-.08,3.78-.25,1.29-.17,2.59-.42,3.91-.75-2-.98-3.98-2.61-5.95-4.91-1.97-2.29-4.16-5.47-6.58-9.53l1.06-.62c2.25,3.77,4.29,6.76,6.12,8.97,1.83,2.21,3.64,3.78,5.41,4.72,1.77.94,3.69,1.41,5.75,1.41,1.31,0,2.38-.17,3.22-.52s1.65-.95,2.44-1.83l2-2.19c1.17-.04,2.06-.28,2.69-.7.62-.43,1.18-1.19,1.66-2.3.85-.21,1.48-.48,1.89-.83s.61-.78.61-1.3c0-.42-.13-.8-.39-1.16-.26-.35-.7-.72-1.33-1.11-.62-.39-1.49-.81-2.59-1.27l20.97-14.06c-1.27-1.67-2.94-3.09-5-4.27-2.06-1.18-4.45-2.08-7.17-2.72-2.72-.64-5.69-.96-8.92-.98-1.85,3.5-3.51,6-4.97,7.5s-2.99,2.25-4.59,2.25-2.96-.57-4.2-1.7c-1.24-1.14-2.41-2.9-3.52-5.3l-1.31-2.84c-1.02-2.25-2.28-4.17-3.77-5.77-1.49-1.59-3.13-2.81-4.92-3.66-1.79-.84-3.67-1.27-5.62-1.27-2.58,0-4.9.6-6.95,1.8-2.05,1.2-3.67,2.83-4.86,4.89s-1.78,4.4-1.78,7c0,.6.04,1.22.12,1.86.08.64.24,1.42.47,2.36l2.06,8.44c.35,1.48.64,3.21.84,5.19.21,1.98.68,3.78,1.41,5.41,1.48,3.23,3.76,5.71,6.84,7.44,3.08,1.73,6.81,2.59,11.19,2.59Zm-9.84-30.16c-.65,0-1.19-.25-1.64-.77-.45-.51-.67-1.13-.67-1.86s.22-1.34.67-1.84c.45-.5.99-.75,1.64-.75s1.19.25,1.64.75c.45.5.67,1.11.67,1.84s-.22,1.35-.67,1.86c-.45.51-1,.77-1.64.77Zm5.06,41.47c-.6,0-1.07-.08-1.41-.25-.33-.17-.5-.4-.5-.69,0-.6.64-.98,1.91-1.12,1.52-.17,2.68-.58,3.47-1.25.79-.67,1.19-1.54,1.19-2.62,0-.46-.08-1.07-.23-1.83-.16-.76-.42-1.74-.8-2.95l1.81-.34c.35.96.63,1.99.83,3.09.2,1.1.3,2.02.3,2.75,0,1.79-.53,3.11-1.59,3.95s-2.72,1.27-4.97,1.27Zm7.47,4.22c-.62,0-.94-.25-.94-.75,0-.46.31-.93.94-1.41.62-.48,1.34-1.02,2.16-1.61s1.53-1.27,2.16-2.03c.62-.76.94-1.64.94-2.64,0-.35-.04-.92-.12-1.69-.08-.77-.2-1.66-.34-2.66-.15-1-.32-2.02-.53-3.06l2.09-.53,1.12,9.62c.06.48-.17,1.09-.7,1.84s-1.2,1.5-2.02,2.25-1.65,1.38-2.52,1.89c-.86.51-1.61.77-2.23.77Z"/>
  <path class="cls-1" d="m136.31,158.62c-.75,0-1.5-.1-2.27-.3-.76-.2-1.4-.45-1.91-.75-.51-.3-.77-.6-.77-.89,0-.33.22-.8.67-1.39s1-1.2,1.64-1.83,1.29-1.15,1.92-1.58c.64-.43,1.13-.64,1.48-.64.52,0,1.07.32,1.64.95.57.64,1.06,1.41,1.45,2.33.4.92.59,1.79.59,2.62,0,.42-.43.77-1.28,1.05s-1.92.42-3.19.42Zm23.16,26.78c-4.62,0-8.58-.93-11.86-2.78-3.28-1.85-5.71-4.52-7.3-8-.79-1.77-1.27-3.6-1.44-5.48-.17-1.88-.46-3.65-.88-5.3l-2.06-8.44c-.23-.98-.4-1.82-.5-2.52-.1-.7-.16-1.37-.16-2.02,0-2.83.65-5.38,1.95-7.62s3.07-4.03,5.31-5.34,4.77-1.97,7.58-1.97c2.12,0,4.15.46,6.08,1.38,1.93.92,3.69,2.22,5.3,3.92,1.6,1.7,2.96,3.75,4.06,6.14l1.31,2.84c1.02,2.19,2.06,3.78,3.11,4.77,1.05.99,2.21,1.48,3.48,1.48,1.33,0,2.67-.73,4-2.19,1.33-1.46,2.94-3.98,4.81-7.56,5.62,0,10.48.82,14.56,2.47,4.08,1.65,7.09,4.01,9.03,7.09l-20.41,13.62c1.04.52,1.84,1.1,2.41,1.73.56.64.84,1.27.84,1.89,0,.73-.24,1.37-.73,1.92-.49.55-1.2.97-2.14,1.27-.52,1.02-1.13,1.78-1.84,2.27-.71.49-1.65.79-2.81.89l-1.62,1.81c-.9,1-1.85,1.71-2.86,2.12-1.01.42-2.26.62-3.73.62-1.62,0-3.11-.24-4.47-.72-1.4.52-2.89.93-4.47,1.23-1.58.3-3.1.45-4.56.45Zm0-1.25c1.23,0,2.49-.08,3.78-.25,1.29-.17,2.59-.42,3.91-.75-2-.98-3.98-2.61-5.95-4.91-1.97-2.29-4.16-5.47-6.58-9.53l1.06-.62c2.25,3.77,4.29,6.76,6.12,8.97,1.83,2.21,3.64,3.78,5.41,4.72s3.69,1.41,5.75,1.41c1.31,0,2.38-.17,3.22-.52s1.65-.95,2.44-1.83l2-2.19c1.17-.04,2.06-.28,2.69-.7.62-.43,1.18-1.19,1.66-2.3.85-.21,1.48-.48,1.89-.83s.61-.78.61-1.3c0-.42-.13-.8-.39-1.16-.26-.35-.7-.72-1.33-1.11-.62-.38-1.49-.81-2.59-1.27l20.97-14.06c-1.27-1.67-2.94-3.09-5-4.27-2.06-1.18-4.45-2.08-7.17-2.72-2.72-.63-5.69-.96-8.92-.98-1.85,3.5-3.51,6-4.97,7.5s-2.99,2.25-4.59,2.25-2.96-.57-4.2-1.7c-1.24-1.13-2.41-2.9-3.52-5.3l-1.31-2.84c-1.02-2.25-2.28-4.17-3.77-5.77s-3.13-2.81-4.92-3.66-3.67-1.27-5.62-1.27c-2.58,0-4.9.6-6.95,1.8-2.05,1.2-3.67,2.83-4.86,4.89s-1.78,4.4-1.78,7c0,.6.04,1.22.12,1.86.08.64.24,1.42.47,2.36l2.06,8.44c.35,1.48.64,3.21.84,5.19.21,1.98.68,3.78,1.41,5.41,1.48,3.23,3.76,5.71,6.84,7.44,3.08,1.73,6.81,2.59,11.19,2.59Zm-9.84-30.16c-.65,0-1.19-.25-1.64-.77-.45-.51-.67-1.13-.67-1.86s.22-1.34.67-1.84,1-.75,1.64-.75,1.19.25,1.64.75.67,1.12.67,1.84-.22,1.35-.67,1.86c-.45.51-1,.77-1.64.77Zm5.06,41.47c-.6,0-1.07-.08-1.41-.25s-.5-.4-.5-.69c0-.6.64-.98,1.91-1.12,1.52-.17,2.68-.58,3.47-1.25s1.19-1.54,1.19-2.62c0-.46-.08-1.07-.23-1.83-.16-.76-.42-1.74-.8-2.95l1.81-.34c.35.96.63,1.99.83,3.09.2,1.1.3,2.02.3,2.75,0,1.79-.53,3.11-1.59,3.95s-2.72,1.27-4.97,1.27Zm7.47,4.22c-.62,0-.94-.25-.94-.75,0-.46.31-.93.94-1.41s1.34-1.02,2.16-1.61,1.53-1.27,2.16-2.03.94-1.64.94-2.64c0-.35-.04-.92-.12-1.69s-.2-1.66-.34-2.66-.32-2.02-.53-3.06l2.09-.53,1.12,9.62c.06.48-.17,1.09-.7,1.84s-1.2,1.5-2.02,2.25-1.65,1.38-2.52,1.89-1.61.77-2.23.77Z"/>
</svg>