<?xml version="1.0" encoding="UTF-8"?><svg id="Layer_1" xmlns="http://www.w3.org/2000/svg" viewBox="0 0 457.5 235.05"><defs><style>.cls-1{fill:none;stroke:#df6c20;stroke-width:15px;}</style></defs><ellipse class="cls-1" cx="92.5" cy="42.5" rx="85" ry="35"/><path class="cls-1" d="M7.5,42.5v150c1.65,19.36,41.05,35.05,87.99,35.05s83.66-15.69,82.01-35.05V42.5M7.5,92.5c1.65,19.36,41.05,35.05,87.99,35.05s83.66-15.69,82.01-35.05h0M7.5,142.5c1.65,19.36,41.05,35.05,87.99,35.05s83.66-15.69,82.01-35.05h0"/><path class="cls-1" d="M272.5,92.5c0-13.81-11.19-25-25-25s-25,11.19-25,25h0c-.46,13.8,8.11,25.36,19.15,25.83,1.97.08,3.94-.2,5.85-.83,11.05-.11,20,11,20,24.8,0,.07,0,.13,0,.2-1.38,13.81-13.69,23.88-27.5,22.5-13.81-1.38-23.88-13.69-22.5-27.5h0"/><path class="cls-1" d="M347.5,167.5c-27.25,4.48-52.97-13.98-57.45-41.22-4.48-27.25,13.98-52.97,41.23-57.45,27.25-4.48,52.97,13.98,57.45,41.22,3.5,21.31-7.07,42.47-26.23,52.45M347.5,142.5l30,40"/><path class="cls-1" d="M412.5,62.5v80c0,13.81,11.19,25,25,25h20"/></svg>